<svg width="50" height="50" viewBox="0 0 50 50" fill="none" xmlns="http://www.w3.org/2000/svg">
<path d="M13.6364 0H0V2.27273H13.6364V0Z" transform="translate(18.1819 11.3636)" fill="white"/>
<path d="M50 4.54545V34.0909C50 35.2964 49.5211 36.4526 48.6687 37.305C47.8162 38.1575 46.6601 38.6364 45.4545 38.6364H4.54545C3.33993 38.6364 2.18377 38.1575 1.33133 37.305C0.478895 36.4526 0 35.2964 0 34.0909L0 4.54545C0 3.33993 0.478895 2.18377 1.33133 1.33133C2.18377 0.478895 3.33993 0 4.54545 0H11.3636V2.27273H4.54545C3.94269 2.27273 3.36461 2.51217 2.93839 2.93839C2.51217 3.36461 2.27273 3.94269 2.27273 4.54545V34.0909C2.27273 34.6937 2.51217 35.2718 2.93839 35.698C3.36461 36.1242 3.94269 36.3636 4.54545 36.3636H45.4545C46.0573 36.3636 46.6354 36.1242 47.0616 35.698C47.4878 35.2718 47.7273 34.6937 47.7273 34.0909V4.54545C47.7273 3.94269 47.4878 3.36461 47.0616 2.93839C46.6354 2.51217 46.0573 2.27273 45.4545 2.27273H38.6364V0H45.4545C46.6601 0 47.8162 0.478895 48.6687 1.33133C49.5211 2.18377 50 3.33993 50 4.54545Z" transform="translate(0 11.3636)" fill="white"/>
<path d="M22.7273 4.54545V17.0455C22.7273 17.3468 22.6075 17.6359 22.3944 17.849C22.1813 18.0621 21.8923 18.1818 21.5909 18.1818C21.2895 18.1818 21.0005 18.0621 20.7874 17.849C20.5743 17.6359 20.4545 17.3468 20.4545 17.0455V4.54545C20.4545 3.94269 20.2151 3.36461 19.7889 2.93839C19.3627 2.51217 18.7846 2.27273 18.1818 2.27273H4.54545C3.94269 2.27273 3.36461 2.51217 2.93839 2.93839C2.51217 3.36461 2.27273 3.94269 2.27273 4.54545V17.0455C2.27273 17.3468 2.153 17.6359 1.93989 17.849C1.72679 18.0621 1.43775 18.1818 1.13636 18.1818C0.834981 18.1818 0.545943 18.0621 0.332833 17.849C0.119724 17.6359 0 17.3468 0 17.0455V4.54545C0 3.33993 0.478895 2.18377 1.33133 1.33133C2.18377 0.478895 3.33992 0 4.54545 0L18.1818 0C19.3873 0 20.5435 0.478895 21.3959 1.33133C22.2484 2.18377 22.7273 3.33993 22.7273 4.54545Z" transform="translate(13.6365)" fill="white"/>
<path d="M2.27273 1.13636C2.27273 0.508767 1.76396 0 1.13636 0C0.508767 0 0 0.508767 0 1.13636V28.4091C0 29.0367 0.508767 29.5455 1.13636 29.5455C1.76396 29.5455 2.27273 29.0367 2.27273 28.4091V1.13636Z" transform="translate(4.54541 15.9091)" fill="white"/>
</svg>
