<svg width="41" height="50" viewBox="0 0 41 50" fill="none" xmlns="http://www.w3.org/2000/svg">
<path d="M40.9091 38.1818V4.54545C40.9091 3.33993 40.4302 2.18377 39.5778 1.33133C38.7253 0.478895 37.5692 0 36.3636 0L4.54545 0C3.33993 0 2.18377 0.478895 1.33133 1.33133C0.478895 2.18377 0 3.33993 0 4.54545L0 45.4545C0 46.6601 0.478895 47.8162 1.33133 48.6687C2.18377 49.5211 3.33993 50 4.54545 50H29.0909C29.6925 49.9999 30.2695 49.7612 30.6955 49.3364L40.2409 39.7909C40.4526 39.5798 40.6207 39.3291 40.7353 39.0529C40.85 38.7768 40.909 38.4808 40.9091 38.1818ZM29.5455 47.2727V40.9091C29.5455 40.3063 29.7849 39.7282 30.2111 39.302C30.6373 38.8758 31.2154 38.6364 31.8182 38.6364H38.1818L29.5455 47.2727ZM38.6364 36.3636H31.8182C30.6127 36.3636 29.4565 36.8425 28.6041 37.695C27.7516 38.5474 27.2727 39.7036 27.2727 40.9091V47.7273H4.54545C3.94269 47.7273 3.36461 47.4878 2.93839 47.0616C2.51217 46.6354 2.27273 46.0573 2.27273 45.4545V4.54545C2.27273 3.94269 2.51217 3.36461 2.93839 2.93839C3.36461 2.51217 3.94269 2.27273 4.54545 2.27273H36.3636C36.9664 2.27273 37.5445 2.51217 37.9707 2.93839C38.3969 3.36461 38.6364 3.94269 38.6364 4.54545V36.3636Z" fill="white"/>
<path d="M2.27273 0H0V15.9091H2.27273V0Z" transform="translate(22.7273 9.09088) rotate(90)" fill="white"/>
<path d="M2.27273 0H0V27.2727H2.27273V0Z" transform="translate(34.0908 13.6364) rotate(90)" fill="white"/>
<path d="M2.27273 0H0V27.2727H2.27273V0Z" transform="translate(34.0908 18.1818) rotate(90)" fill="white"/>
<path d="M2.27273 0H0V27.2727H2.27273V0Z" transform="translate(34.0908 22.7273) rotate(90)" fill="white"/>
<path d="M2.27273 0H0V27.2727H2.27273V0Z" transform="translate(34.0908 27.2727) rotate(90)" fill="white"/>
<path d="M2.27273 0H0V27.2727H2.27273V0Z" transform="translate(34.0908 31.8182) rotate(90)" fill="white"/>
<path d="M2.27273 0H0V6.81818H2.27273V0Z" transform="translate(13.6365 36.3636) rotate(90)" fill="white"/>
</svg>
