<svg width="50" height="50" viewBox="0 0 50 50" fill="none" xmlns="http://www.w3.org/2000/svg">
<path d="M48.8636 0H1.13636C0.508767 0 0 0.508767 0 1.13636C0 1.76396 0.508767 2.27273 1.13636 2.27273H48.8636C49.4912 2.27273 50 1.76396 50 1.13636C50 0.508767 49.4912 0 48.8636 0Z" transform="translate(0 47.7273)" fill="white"/>
<path d="M3.40909 0C2.73484 0 2.07572 0.19994 1.5151 0.574535C0.95448 0.949131 0.517529 1.48156 0.259503 2.10449C0.00147679 2.72742 -0.0660342 3.41287 0.0655064 4.07417C0.197047 4.73547 0.52173 5.34291 0.9985 5.81968C1.47527 6.29645 2.08271 6.62114 2.74401 6.75268C3.40531 6.88422 4.09076 6.81671 4.71369 6.55868C5.33662 6.30065 5.86905 5.8637 6.24365 5.30308C6.61824 4.74246 6.81818 4.08335 6.81818 3.40909C6.81818 2.9614 6.73 2.5181 6.55868 2.10449C6.38736 1.69088 6.13625 1.31506 5.81968 0.9985C5.50312 0.681936 5.1273 0.430824 4.71369 0.259502C4.30008 0.0881787 3.85678 0 3.40909 0V0ZM3.40909 4.54545C3.18434 4.54545 2.96464 4.47881 2.77776 4.35394C2.59089 4.22908 2.44524 4.0516 2.35923 3.84396C2.27322 3.63632 2.25072 3.40783 2.29456 3.1874C2.33841 2.96696 2.44664 2.76448 2.60556 2.60556C2.76448 2.44664 2.96697 2.33841 3.1874 2.29456C3.40783 2.25072 3.63632 2.27322 3.84396 2.35923C4.0516 2.44524 4.22908 2.59089 4.35394 2.77776C4.47881 2.96464 4.54546 3.18434 4.54546 3.40909C4.54546 3.71047 4.42573 3.99951 4.21262 4.21262C3.99951 4.42573 3.71047 4.54545 3.40909 4.54545Z" transform="translate(21.5908)" fill="white"/>
<path d="M22.7273 0C16.6996 0 10.9189 2.39447 6.65666 6.65666C2.39447 10.9189 0 16.6996 0 22.7273V31.8182H45.4545V22.7273C45.4545 16.6996 43.0601 10.9189 38.7979 6.65666C34.5357 2.39447 28.7549 0 22.7273 0ZM43.1818 29.5455H2.27273V22.7273C2.27273 17.3024 4.42775 12.0997 8.26372 8.26373C12.0997 4.42775 17.3024 2.27273 22.7273 2.27273C28.1522 2.27273 33.3549 4.42775 37.1908 8.26373C41.0268 12.0997 43.1818 17.3024 43.1818 22.7273V29.5455Z" transform="translate(2.27271 11.3636)" fill="white"/>
<path d="M18.1818 0C13.3597 0 8.73508 1.91558 5.32533 5.32533C1.91558 8.73508 0 13.3597 0 18.1818C0 18.4832 0.119724 18.7722 0.332833 18.9853C0.545943 19.1985 0.834981 19.3182 1.13636 19.3182C1.43775 19.3182 1.72678 19.1985 1.93989 18.9853C2.153 18.7722 2.27273 18.4832 2.27273 18.1818C2.27273 13.9625 3.94886 9.91593 6.93239 6.93239C9.91593 3.94886 13.9625 2.27273 18.1818 2.27273C18.4832 2.27273 18.7722 2.153 18.9853 1.93989C19.1985 1.72679 19.3182 1.43775 19.3182 1.13636C19.3182 0.834981 19.1985 0.545942 18.9853 0.332832C18.7722 0.119723 18.4832 0 18.1818 0Z" transform="translate(6.81812 15.9091)" fill="white"/>
</svg>
